ffmpeg version N-86994-g92da230 Copyright (c) 2000-2017 the FFmpeg developers
  built with gcc 7.1.0 (GCC)
  configuration: --enable-gpl --enable-version3 --enable-cuda --enable-cuvid --enable-d3d11va --enable-dxva2 --enable-libmfx --enable-nvenc --enable-avisynth --enable-bzlib --enable-fontconfig --enable-frei0r --enable-gnutls --enable-iconv --enable-libass --enable-libbluray --enable-libbs2b --enable-libcaca --enable-libfreetype --enable-libgme --enable-libgsm --enable-libilbc --enable-libmodplug --enable-libmp3lame --enable-libopencore-amrnb --enable-libopencore-amrwb --enable-libopenh264 --enable-libopenjpeg --enable-libopus --enable-librtmp --enable-libsnappy --enable-libsoxr --enable-libspeex --enable-libtheora --enable-libtwolame --enable-libvidstab --enable-libvo-amrwbenc --enable-libvorbis --enable-libvpx --enable-libwavpack --enable-libwebp --enable-libx264 --enable-libx265 --enable-libxavs --enable-libxvid --enable-libzimg --enable-lzma --enable-zlib
  libavutil      55. 74.100 / 55. 74.100
  libavcodec     57.102.100 / 57.102.100
  libavformat    57. 76.100 / 57. 76.100
  libavdevice    57.  7.100 / 57.  7.100
  libavfilter     6. 99.100 /  6. 99.100
  libswscale      4.  7.102 /  4.  7.102
  libswresample   2.  8.100 /  2.  8.100
  libpostproc    54.  6.100 / 54.  6.100
Input #0, image2pipe, from 'pipe:':
  Duration: N/A, bitrate: N/A
    Stream #0:0: Video: ppm, rgb24, 320x240, 20 fps, 20 tbr, 20 tbn, 20 tbc
Stream mapping:
  Stream #0:0 -> #0:0 (ppm (native) -> h264 (libx264))
[libx264 @ 000000000256cbe0] using cpu capabilities: MMX2 SSE2Fast SSSE3 SSE4.2 AVX FMA3 BMI2 AVX2
[libx264 @ 000000000256cbe0] profile High, level 1.3
[libx264 @ 000000000256cbe0] 264 - core 152 r2851 ba24899 - H.264/MPEG-4 AVC codec - Copyleft 2003-2017 - http://www.videolan.org/x264.html - options: cabac=1 ref=3 deblock=1:0:0 analyse=0x3:0x113 me=hex subme=7 psy=1 psy_rd=1.00:0.00 mixed_ref=1 me_range=16 chroma_me=1 trellis=1 8x8dct=1 cqm=0 deadzone=21,11 fast_pskip=1 chroma_qp_offset=-2 threads=7 lookahead_threads=1 sliced_threads=0 nr=0 decimate=1 interlaced=0 bluray_compat=0 constrained_intra=0 bframes=3 b_pyramid=2 b_adapt=1 b_bias=0 direct=1 weightb=1 open_gop=0 weightp=2 keyint=250 keyint_min=20 scenecut=40 intra_refresh=0 rc_lookahead=40 rc=abr mbtree=1 bitrate=400 ratetol=1.0 qcomp=0.60 qpmin=0 qpmax=69 qpstep=4 ip_ratio=1.40 aq=1:1.00
Output #0, mp4, to '.\mission_records\6d93dac7-a070-49d8-a229-09b36da33731\video.mp4':
  Metadata:
    encoder         : Lavf57.76.100
    Stream #0:0: Video: h264 (libx264) (avc1 / 0x31637661), yuv420p, 320x240, q=-1--1, 400 kb/s, 20 fps, 10240 tbn, 20 tbc
    Metadata:
      encoder         : Lavc57.102.100 libx264
    Side data:
      cpb: bitrate max/min/avg: 0/0/400000 buffer size: 0 vbv_delay: -1
frame=   32 fps=0.0 q=0.0 size=       0kB time=00:00:00.00 bitrate=N/A speed=   0x    frame=   41 fps= 40 q=0.0 size=       0kB time=00:00:00.00 bitrate=N/A speed=   0x    frame=   50 fps= 32 q=0.0 size=       0kB time=00:00:00.00 bitrate=N/A speed=   0x    frame=   59 fps= 29 q=24.0 size=       0kB time=00:00:00.25 bitrate=   1.5kbits/s speed=0.121x    frame=   68 fps= 26 q=22.0 size=       0kB time=00:00:00.70 bitrate=   0.5kbits/s speed=0.269x    frame=   77 fps= 25 q=26.0 size=       0kB time=00:00:01.15 bitrate=   0.3kbits/s speed=0.369x    frame=   86 fps= 24 q=26.0 size=       0kB time=00:00:01.60 bitrate=   0.2kbits/s speed=0.438x    frame=   95 fps= 23 q=26.0 size=       0kB time=00:00:02.05 bitrate=   0.2kbits/s speed=0.492x    frame=  104 fps= 22 q=26.0 size=       0kB time=00:00:02.50 bitrate=   0.2kbits/s speed=0.532x    frame=  113 fps= 22 q=26.0 size=       0kB time=00:00:02.95 bitrate=   0.1kbits/s speed=0.563x    frame=  121 fps= 21 q=26.0 size=       0kB time=00:00:03.35 bitrate=   0.1kbits/s speed=0.582x    frame=  130 fps= 21 q=27.0 size=       0kB time=00:00:03.80 bitrate=   0.1kbits/s speed=0.603x    frame=  139 fps= 20 q=27.0 size=       0kB time=00:00:04.25 bitrate=   0.1kbits/s speed=0.62x    frame=  148 fps= 20 q=26.0 size=       0kB time=00:00:04.70 bitrate=   0.1kbits/s speed=0.639x    frame=  157 fps= 20 q=26.0 size=     256kB time=00:00:05.15 bitrate= 407.3kbits/s speed=0.651x    frame=  157 fps= 19 q=-1.0 Lsize=     393kB time=00:00:07.70 bitrate= 418.4kbits/s speed=0.94x    
video:391kB audio:0kB subtitle:0kB other streams:0kB global headers:0kB muxing overhead: 0.582946%
[libx264 @ 000000000256cbe0] frame I:13    Avg QP:18.50  size:  4685
[libx264 @ 000000000256cbe0] frame P:74    Avg QP:21.23  size:  2757
[libx264 @ 000000000256cbe0] frame B:70    Avg QP:21.49  size:  1925
[libx264 @ 000000000256cbe0] consecutive B-frames: 37.6%  6.4%  7.6% 48.4%
[libx264 @ 000000000256cbe0] mb I  I16..4: 38.6% 52.6%  8.8%
[libx264 @ 000000000256cbe0] mb P  I16..4: 21.0% 21.2%  4.0%  P16..4: 18.6%  7.8%  7.6%  0.0%  0.0%    skip:19.8%
[libx264 @ 000000000256cbe0] mb B  I16..4:  3.9%  4.3%  1.2%  B16..8: 29.9% 12.2%  8.4%  direct: 5.5%  skip:34.7%  L0:51.0% L1:41.6% BI: 7.4%
[libx264 @ 000000000256cbe0] final ratefactor: 21.19
[libx264 @ 000000000256cbe0] 8x8 transform intra:47.5% inter:57.2%
[libx264 @ 000000000256cbe0] coded y,uvDC,uvAC intra: 47.6% 17.0% 2.2% inter: 21.3% 13.5% 0.1%
[libx264 @ 000000000256cbe0] i16 v,h,dc,p:  9% 81%  4%  6%
[libx264 @ 000000000256cbe0] i8 v,h,dc,ddl,ddr,vr,hd,vl,hu:  4% 25% 33%  5%  6%  4%  9%  4%  9%
[libx264 @ 000000000256cbe0] i4 v,h,dc,ddl,ddr,vr,hd,vl,hu:  6% 21% 24%  7%  8%  5% 13%  4% 12%
[libx264 @ 000000000256cbe0] i8c dc,h,v,p: 53% 42%  2%  3%
[libx264 @ 000000000256cbe0] Weighted P-Frames: Y:6.8% UV:2.7%
[libx264 @ 000000000256cbe0] ref P L0: 66.6%  6.0% 17.9%  9.1%  0.5%
[libx264 @ 000000000256cbe0] ref B L0: 89.3%  8.5%  2.2%
[libx264 @ 000000000256cbe0] ref B L1: 96.5%  3.5%
[libx264 @ 000000000256cbe0] kb/s:407.31
